<svg width="640" height="360" viewBox="0 0 640 360" fill="none" xmlns="http://www.w3.org/2000/svg">
  <defs>
    <linearGradient id="gixBankBg" x1="0" y1="0" x2="1" y2="1">
      <stop offset="0" stop-color="#0EA5E9" />
      <stop offset="1" stop-color="#6366F1" />
    </linearGradient>
    <linearGradient id="gixBankCard" x1="0" y1="0" x2="1" y2="1">
      <stop offset="0" stop-color="#0F172A" />
      <stop offset="1" stop-color="#020617" />
    </linearGradient>
  </defs>

  <!-- fundo da página -->
  <rect width="640" height="360" rx="28" fill="#020617" />
  <rect x="1" y="1" width="638" height="358" rx="27" stroke="#1F2937" stroke-width="2" />

  <!-- barra superior do navegador -->
  <rect x="24" y="24" width="592" height="40" rx="16" fill="#020617" />
  <circle cx="48" cy="44" r="6" fill="#22C55E" />
  <circle cx="68" cy="44" r="6" fill="#38BDF8" />
  <circle cx="88" cy="44" r="6" fill="#6366F1" />
  <rect x="120" y="34" width="140" height="20" rx="10" fill="#020617" />
  <rect x="268" y="34" width="96" height="20" rx="10" fill="#020617" />
  <rect x="376" y="34" width="84" height="20" rx="10" fill="#020617" />

  <!-- faixa de branding / título -->
  <rect x="56" y="88" width="528" height="40" rx="12" fill="url(#gixBankBg)" />
  <rect x="72" y="100" width="130" height="12" rx="6" fill="#0F172A" />
  <rect x="72" y="116" width="96" height="8" rx="4" fill="#0F172A" />
  <rect x="220" y="100" width="90" height="10" rx="5" fill="#0F172A" />
  <rect x="220" y="116" width="70" height="8" rx="4" fill="#0F172A" />

  <!-- coluna esquerda: menus / saldos -->
  <rect x="56" y="148" width="160" height="170" rx="18" fill="#020617" />
  <rect x="58" y="150" width="156" height="166" rx="17" stroke="#111827" stroke-width="2" />
  <rect x="72" y="164" width="80" height="10" rx="5" fill="#0B1120" />
  <rect x="72" y="182" width="104" height="8" rx="4" fill="#0B1120" />
  <rect x="72" y="200" width="96" height="8" rx="4" fill="#0B1120" />
  <rect x="72" y="222" width="120" height="12" rx="6" fill="#0B1120" />
  <rect x="72" y="242" width="72" height="10" rx="5" fill="#0EA5E9" />
  <rect x="72" y="262" width="98" height="8" rx="4" fill="#0B1120" />
  <rect x="72" y="278" width="82" height="8" rx="4" fill="#0B1120" />

  <!-- cartão principal -->
  <rect x="236" y="148" width="192" height="120" rx="20" fill="url(#gixBankCard)" />
  <rect x="244" y="156" width="72" height="10" rx="5" fill="#020617" />
  <rect x="244" y="172" width="52" height="8" rx="4" fill="#020617" />
  <rect x="244" y="198" width="120" height="7" rx="3.5" fill="#020617" />
  <rect x="244" y="212" width="110" height="7" rx="3.5" fill="#020617" />
  <rect x="244" y="226" width="88" height="7" rx="3.5" fill="#020617" />

  <!-- chip / logo do cartão -->
  <rect x="356" y="164" width="28" height="22" rx="6" fill="#020617" stroke="#1F2937" />
  <rect x="360" y="170" width="20" height="2" rx="1" fill="#1F2937" />
  <rect x="360" y="176" width="20" height="2" rx="1" fill="#1F2937" />

  <!-- destaque inferior do cartão -->
  <rect x="268" y="252" width="132" height="14" rx="7" fill="url(#gixBankBg)" />

  <!-- coluna direita: módulos / cards menores -->
  <rect x="452" y="148" width="132" height="72" rx="16" fill="#020617" />
  <rect x="454" y="150" width="128" height="68" rx="15" stroke="#111827" stroke-width="2" />
  <rect x="468" y="162" width="78" height="9" rx="4.5" fill="#0B1120" />
  <rect x="468" y="178" width="64" height="7" rx="3.5" fill="#0B1120" />

  <rect x="452" y="236" width="132" height="82" rx="16" fill="#020617" />
  <rect x="454" y="238" width="128" height="78" rx="15" stroke="#111827" stroke-width="2" />
  <rect x="468" y="252" width="40" height="10" rx="5" fill="#0EA5E9" />
  <rect x="514" y="252" width="40" height="10" rx="5" fill="#6366F1" />
  <rect x="468" y="270" width="86" height="7" rx="3.5" fill="#0B1120" />
  <rect x="468" y="284" width="72" height="7" rx="3.5" fill="#0B1120" />
</svg>


