<svg width="640" height="360" viewBox="0 0 640 360" fill="none" xmlns="http://www.w3.org/2000/svg">
  <defs>
    <linearGradient id="gixBankBg" x1="0" y1="0" x2="1" y2="1">
      <stop offset="0" stop-color="#0EA5E9" />
      <stop offset="1" stop-color="#6366F1" />
    </linearGradient>
  </defs>
  <rect width="640" height="360" rx="28" fill="#020617" />
  <rect x="1" y="1" width="638" height="358" rx="27" stroke="#1F2937" stroke-width="2" />

  <rect x="24" y="24" width="592" height="40" rx="16" fill="#020617" />
  <circle cx="48" cy="44" r="6" fill="#22C55E" />
  <circle cx="68" cy="44" r="6" fill="#38BDF8" />
  <circle cx="88" cy="44" r="6" fill="#6366F1" />
  <rect x="120" y="34" width="110" height="20" rx="10" fill="#020617" />
  <rect x="246" y="34" width="96" height="20" rx="10" fill="#020617" />
  <rect x="358" y="34" width="84" height="20" rx="10" fill="#020617" />

  <rect x="56" y="90" width="240" height="36" rx="10" fill="url(#gixBankBg)" />
  <rect x="56" y="140" width="220" height="10" rx="5" fill="#1F2937" />
  <rect x="56" y="158" width="196" height="10" rx="5" fill="#111827" />
  <rect x="56" y="178" width="208" height="10" rx="5" fill="#111827" />

  <rect x="56" y="214" width="156" height="86" rx="14" fill="#020617" />
  <rect x="58" y="216" width="152" height="82" rx="13" stroke="#1F2937" stroke-width="2" />
  <rect x="72" y="230" width="92" height="12" rx="6" fill="#0B1120" />
  <rect x="72" y="248" width="112" height="10" rx="5" fill="#111827" />
  <rect x="72" y="268" width="68" height="10" rx="5" fill="#0EA5E9" />

  <rect x="236" y="214" width="156" height="86" rx="14" fill="#020617" />
  <rect x="238" y="216" width="152" height="82" rx="13" stroke="#1F2937" stroke-width="2" />
  <rect x="252" y="230" width="92" height="12" rx="6" fill="#0B1120" />
  <rect x="252" y="248" width="112" height="10" rx="5" fill="#111827" />
  <rect x="252" y="268" width="68" height="10" rx="5" fill="#6366F1" />

  <rect x="332" y="96" width="260" height="180" rx="18" fill="#020617" />
  <rect x="334" y="98" width="256" height="176" rx="17" stroke="#1F2937" stroke-width="2" />
  <rect x="354" y="118" width="120" height="12" rx="6" fill="#020617" />
  <rect x="354" y="138" width="92" height="8" rx="4" fill="#020617" />

  <rect x="354" y="164" width="208" height="36" rx="9" fill="#020617" />
  <rect x="360" y="170" width="48" height="24" rx="6" fill="#0B1120" />
  <rect x="412" y="170" width="48" height="24" rx="6" fill="#0B1120" />
  <rect x="464" y="170" width="48" height="24" rx="6" fill="#0B1120" />
  <rect x="516" y="170" width="40" height="24" rx="6" fill="#0B1120" />

  <rect x="354" y="210" width="96" height="32" rx="10" fill="url(#gixBankBg)" />
  <rect x="464" y="210" width="98" height="32" rx="10" fill="#020617" />
  <rect x="470" y="216" width="86" height="20" rx="10" fill="#020617" stroke="#1F2937" />

  <rect x="374" y="260" width="148" height="12" rx="6" fill="#020617" />
  <rect x="374" y="278" width="104" height="10" rx="5" fill="#020617" />
</svg>


