<svg width="640" height="360" viewBox="0 0 640 360" fill="none" xmlns="http://www.w3.org/2000/svg">
  <defs>
    <linearGradient id="gixConsultBg" x1="0" y1="0" x2="1" y2="1">
      <stop offset="0" stop-color="#22C55E" />
      <stop offset="1" stop-color="#0EA5E9" />
    </linearGradient>
  </defs>
  <rect width="640" height="360" rx="28" fill="#020617" />
  <rect x="1" y="1" width="638" height="358" rx="27" stroke="#1F2937" stroke-width="2" />
  <rect x="24" y="24" width="592" height="40" rx="16" fill="#020617" />
  <circle cx="48" cy="44" r="6" fill="#F97316" />
  <circle cx="68" cy="44" r="6" fill="#FACC15" />
  <circle cx="88" cy="44" r="6" fill="#22C55E" />
  <rect x="120" y="34" width="110" height="20" rx="10" fill="#0F172A" />
  <rect x="246" y="34" width="80" height="20" rx="10" fill="#0F172A" />
  <rect x="342" y="34" width="96" height="20" rx="10" fill="#0F172A" />
  <rect x="454" y="34" width="84" height="20" rx="10" fill="#0F172A" />

  <rect x="56" y="94" width="240" height="32" rx="8" fill="url(#gixConsultBg)" />
  <rect x="56" y="138" width="220" height="10" rx="5" fill="#4B5563" />
  <rect x="56" y="156" width="180" height="10" rx="5" fill="#374151" />
  <rect x="56" y="178" width="200" height="10" rx="5" fill="#111827" />

  <rect x="56" y="214" width="162" height="90" rx="14" fill="#020617" />
  <rect x="58" y="216" width="158" height="86" rx="13" stroke="#1F2937" stroke-width="2" />
  <rect x="72" y="230" width="110" height="12" rx="6" fill="#1F2937" />
  <rect x="72" y="248" width="90" height="8" rx="4" fill="#111827" />
  <rect x="72" y="262" width="82" height="8" rx="4" fill="#111827" />
  <rect x="72" y="280" width="72" height="10" rx="5" fill="#22C55E" />

  <rect x="246" y="214" width="162" height="90" rx="14" fill="#020617" />
  <rect x="248" y="216" width="158" height="86" rx="13" stroke="#1F2937" stroke-width="2" />
  <rect x="262" y="230" width="110" height="12" rx="6" fill="#1F2937" />
  <rect x="262" y="248" width="90" height="8" rx="4" fill="#111827" />
  <rect x="262" y="262" width="82" height="8" rx="4" fill="#111827" />
  <rect x="262" y="280" width="72" height="10" rx="5" fill="#0EA5E9" />

  <rect x="334" y="94" width="250" height="140" rx="18" fill="#020617" />
  <rect x="336" y="96" width="246" height="136" rx="17" stroke="#1F2937" stroke-width="2" />
  <rect x="354" y="114" width="80" height="10" rx="5" fill="#111827" />
  <rect x="354" y="132" width="60" height="8" rx="4" fill="#111827" />
  <rect x="354" y="166" width="210" height="6" rx="3" fill="#111827" />
  <rect x="354" y="180" width="190" height="6" rx="3" fill="#111827" />
  <rect x="354" y="194" width="160" height="6" rx="3" fill="#111827" />

  <rect x="394" y="266" width="140" height="18" rx="9" fill="url(#gixConsultBg)" />
</svg>


